<!-- Generator: Adobe Illustrator 27.5.0, SVG Export Plug-In . SVG Version: 6.00 Build 0)  -->
<svg version="1.1" xmlns="http://www.w3.org/2000/svg" xmlns:xlink="http://www.w3.org/1999/xlink" x="0px" y="0px"
	 viewBox="0 0 1122 1122" style="enable-background:new 0 0 1122 1122;" xml:space="preserve">
<g id="Object">
	<g>
		<path style="fill:#616E7D;" d="M708.863,319.829c-65.555,0-131.696,16.306-146.298,47.559h-3.131
			c-1.897-4.091-4.681-7.922-8.242-11.489v11.489v9.682v3.462v309.864v10.872v5.953v10.751H892.22v-337.44h-11.628h-22.331
			C858.246,340.678,783.08,319.829,708.863,319.829z M847.408,690.397H570.822V380.533v-3.462
			c4.953-25.898,64.78-46.37,138.041-46.37c76.49,0,138.522,22.309,138.545,49.832V690.397z"/>
		<path style="fill:#616E7D;" d="M413.138,330.701c29.631,0,57.027,3.38,79.546,9.074v-11.267
			c-24.017-5.724-51.819-8.678-79.546-8.678c-74.225,0-149.383,20.848-149.406,60.696v0.007h-22.323H229.78v337.44h262.904v-10.751
			v-5.953v-10.872H274.615V380.533C274.638,353.01,336.647,330.701,413.138,330.701z"/>
		<path style="fill:#FFFFFF;" d="M492.684,424.024v-43.491v-40.758c-22.519-5.694-49.915-9.074-79.546-9.074
			c-76.49,0-138.5,22.309-138.523,49.832v309.864h218.069V596.17H300.859v-21.51h191.824v-53.806H300.859v-21.514h191.824v-53.81
			H300.859v-21.506H492.684z"/>
		<path style="fill:#FFFFFF;" d="M570.822,377.071v3.462v309.864h276.586V380.533c-0.022-27.523-62.054-49.832-138.545-49.832
			C635.601,330.701,575.774,351.173,570.822,377.071z M821.141,596.17H600.295v-21.51h220.846V596.17z M821.141,520.855H600.295
			v-21.514h220.846V520.855z M821.141,445.53H600.295v-21.506h220.846V445.53z"/>
		<rect x="300.859" y="424.024" style="fill:#82BFAB;" width="191.824" height="21.506"/>
		<rect x="300.859" y="499.341" style="fill:#82BFAB;" width="191.824" height="21.514"/>
		<rect x="300.859" y="574.66" style="fill:#82BFAB;" width="191.824" height="21.51"/>
		<rect x="600.295" y="424.024" style="fill:#82BFAB;" width="220.846" height="21.506"/>
		<rect x="600.295" y="499.341" style="fill:#82BFAB;" width="220.846" height="21.514"/>
		<rect x="600.295" y="574.66" style="fill:#82BFAB;" width="220.846" height="21.51"/>
		<path style="fill:#AAD4C8;" d="M492.684,380.533v43.491v21.506v53.81v21.514v53.806v21.51v94.226v10.872v5.953v10.751v84.197
			l29.022-29.228l29.488,29.228v-84.197v-10.751v-5.953v-10.872V380.533v-3.462v-9.682V355.9
			c-12.147-12.189-33.169-21.356-58.509-27.392v11.267V380.533z"/>
	</g>
</g>
</svg>
